<?xml version="1.0" encoding="UTF-8"?>
<svg id="Layer_1" data-name="Layer 1" xmlns="http://www.w3.org/2000/svg" viewBox="0 0 500 500">
  <defs>
    <style>
      .cls-1, .cls-2, .cls-3 {
        fill: #f0934e;
      }

      .cls-4 {
        fill: #37474f;
      }

      .cls-2, .cls-5, .cls-6 {
        opacity: .2;
      }

      .cls-2, .cls-7, .cls-8, .cls-9, .cls-10, .cls-6 {
        isolation: isolate;
      }

      .cls-11 {
        fill: #263238;
      }

      .cls-3, .cls-12 {
        font-size: 200px;
      }

      .cls-3, .cls-12, .cls-13 {
        font-family: BCAlphapipeRB-Bold, 'BC Alphapipe';
        font-weight: 700;
      }

      .cls-14, .cls-8, .cls-6 {
        fill: #fff;
      }

      .cls-7 {
        opacity: .49;
      }

      .cls-12 {
        fill: #d88446;
      }

      .cls-8 {
        opacity: .4;
      }

      .cls-15 {
        fill: #e48c4a;
      }

      .cls-9 {
        opacity: .1;
      }

      .cls-16 {
        fill: #dbdbdb;
      }

      .cls-17 {
        letter-spacing: 0em;
      }

      .cls-18 {
        letter-spacing: 0em;
      }

      .cls-10 {
        opacity: .3;
      }

      .cls-19 {
        letter-spacing: -.01em;
      }

      .cls-13 {
        font-size: 24px;
      }

      .cls-20 {
        fill: #455a64;
      }

      .cls-21 {
        fill: #ebebeb;
      }

      .cls-22 {
        letter-spacing: 0em;
      }

      .cls-23 {
        letter-spacing: -.02em;
      }
    </style>
  </defs>
  <path class="cls-21" d="M215.07,391.74H36.34l23.17-56.97,12.24-6.71,19.27-44.55,15.58-9.15,14.82-26.8h14.62l32.5,54.87,16.54,8.54,29.99,80.77h0Z"/>
  <path class="cls-16" d="M36.34,391.74h77.09v-44.46l19.78-31.12-9.42-32.65,12.25-35.95h-14.62l-14.82,26.8-15.58,9.15-19.27,44.55-12.24,6.71-23.17,56.97h0ZM136.04,391.74l7.47-23.41,12.08-11.9,5.4-14.03,3.76,3.05v13.42l-9.16,10.68v22.27l-19.55-.08h0ZM150.4,319.65l2-9.39,5.39-5.39,2.52,3.2-3.36,4.19,1.51,8.93-8.06-1.54h0Z"/>
  <path class="cls-21" d="M202.21,391.69h261.45l-49.33-103.02-23.73-10.18-25.19-49.22-16.61-17.86-14.64-32.59-17.14,2.78-29.31,68.28-16.37,12.21-26.58,70.33-26.18,25.43-16.37,33.84h0Z"/>
  <path class="cls-16" d="M334.16,178.82l2.01,51.34-19.3,26.97,9.05,20.63-17.92,45.5,15.62,37.64-9.25,30.79h-112.16l16.37-33.84,26.18-25.43,26.58-70.33,16.37-12.21,29.31-68.28,17.14-2.78h0ZM329.34,310.03l13.46-23.4-1.06-9.92,5.02-7.12,6.07,20.22-18.21,20.22h-5.28ZM318.78,138.02l.95,1.94,2.14.31-1.55,1.5.37,2.13-1.91-1-1.91,1,.36-2.13-1.54-1.5,2.13-.31.96-1.94ZM139.27,234.81l.96,1.93,2.13.31-1.54,1.51.36,2.13-1.91-1.01-1.91,1.01.36-2.13-1.54-1.51,2.13-.31.96-1.93h0ZM388.67,67.08l.96,1.93,2.13.31-1.54,1.51.36,2.12-1.91-1-1.91,1,.37-2.12-1.55-1.51,2.14-.31.95-1.93ZM174.18,70.02l.96,1.93,2.13.31-1.54,1.51.36,2.12-1.91-1-1.91,1,.37-2.12-1.55-1.51,2.14-.31.95-1.93ZM446.15,228.93l.96,1.93,2.14.31-1.55,1.51.36,2.13-1.91-1.01-1.91,1.01.37-2.13-1.55-1.51,2.14-.31.95-1.93h0ZM235.71,134.69l.95,1.94,2.14.31-1.55,1.5.37,2.13-1.91-1-1.92,1,.37-2.13-1.55-1.5,2.14-.31.96-1.94h0ZM45.44,94.84l.95,1.93,2.13.31-1.54,1.51.36,2.13-1.9-1.01-1.92,1.01.37-2.13-1.55-1.51,2.14-.31.96-1.93ZM86.65,210.39l.95,1.93,2.14.31-1.55,1.51.37,2.13-1.91-1.01-1.91,1.01.36-2.13-1.54-1.51,2.13-.31.96-1.93h0ZM45.44,243.33l.58,1.2,1.32.19-.95.93.23,1.32-1.18-.63-1.19.63.23-1.32-.96-.93,1.32-.19.6-1.2ZM179.72,121.92l.59,1.2,1.32.19-.95.93.23,1.32-1.19-.62-1.18.62.23-1.32-.96-.93,1.32-.19.59-1.2ZM278.94,228.23l.59,1.2,1.32.19-.95.93.22,1.32-1.18-.62-1.18.62.23-1.32-.96-.93,1.32-.19.59-1.2h0ZM55.8,105.2l.6,1.2,1.32.19-.96.93.23,1.32-1.19-.62-1.18.62.23-1.32-.95-.93,1.32-.19.58-1.2ZM391.76,211.51l.59,1.2,1.32.19-.95.93.22,1.32-1.18-.62-1.18.62.23-1.32-.96-.93,1.32-.19.59-1.2h0ZM94.62,267.77l.59,1.2,1.32.19-.95.93.22,1.32-1.18-.62-1.18.62.23-1.32-.96-.93,1.32-.19.59-1.2ZM71.7,203.94l.59,1.19,1.32.2-.95.93.22,1.31-1.18-.62-1.18.62.23-1.31-.96-.93,1.32-.2.59-1.19ZM265.48,112.66l.59,1.19,1.32.19-.96.93.23,1.32-1.18-.62-1.18.62.22-1.32-.96-.93,1.32-.19.6-1.19h0ZM396.44,267.77l.59,1.2,1.32.19-.96.93.23,1.32-1.18-.62-1.18.62.23-1.32-.96-.93,1.32-.19.59-1.2h0ZM455.75,153.62l.59,1.2,1.32.19-.96.93.23,1.32-1.18-.62-1.18.62.22-1.32-.95-.93,1.32-.19.59-1.2h0ZM403.62,151.81l.59,1.19,1.32.19-.96.94.23,1.31-1.18-.62-1.18.62.22-1.31-.95-.94,1.32-.19.59-1.19h0ZM365.35,99.4c-7.23,12.62-23.33,16.99-35.95,9.76-12.62-7.23-16.99-23.33-9.76-35.95,3.66-6.39,9.83-10.95,17.01-12.59-12.36,5.7-17.76,20.33-12.07,32.69s20.33,17.76,32.69,12.07c3.07-1.42,5.82-3.45,8.08-5.98Z"/>
  <path class="cls-11" d="M36.15,391.73l53.46-.25,53.46-.08,106.93-.17,106.93.16,53.46.09,53.46.25-53.46.24-53.46.09-106.93.17-106.93-.17-53.46-.09s-53.46-.24-53.46-.24Z"/>
  <path class="cls-20" d="M469.37,400.69H30.63c-2.47,0-4.48-2.01-4.48-4.48h0c0-2.47,1.99-4.47,4.46-4.48h438.76c2.47,0,4.48,2.01,4.48,4.48h0c0,2.47-2.01,4.47-4.48,4.48Z"/>
  <path class="cls-20" d="M103.58,409.55h276.57c2.47,0,4.48,2.01,4.48,4.48h0c0,2.47-2.01,4.48-4.48,4.48H103.58c-2.47,0-4.48-2.01-4.48-4.48h0c0-2.47,2.01-4.48,4.48-4.48Z"/>
  <path class="cls-20" d="M355.31,436.23h-201.49c-2.47,0-4.47-1.99-4.48-4.46,0,0,0-.01,0-.02,0-2.47,2.01-4.48,4.48-4.48h201.49c2.47,0,4.48,2.01,4.48,4.48h0c0,2.47-1.99,4.47-4.46,4.48h-.02Z"/>
  <path class="cls-20" d="M63.86,409.55h21.05c2.47,0,4.48,2.01,4.48,4.48h0c0,2.47-2.01,4.48-4.48,4.48h-21.05c-2.47,0-4.48-2.01-4.48-4.48h0c0-2.47,2.01-4.48,4.48-4.48Z"/>
  <path class="cls-20" d="M390.13,436.23h-10.53c-2.47,0-4.48-2.01-4.48-4.48h0c0-2.47,2.01-4.47,4.48-4.48h10.53c2.47,0,4.47,2.01,4.48,4.48,0,2.47-2.01,4.48-4.48,4.48h0ZM233.48,409.64h-115.89c2.49,0,4.5-2.01,4.5-4.5s-2.01-4.5-4.5-4.5h115.89c-2.49,0-4.5,2.01-4.5,4.5s2.01,4.5,4.5,4.5h0ZM353.83,409.64h-76c2.49,0,4.5-2.01,4.5-4.5s-2.01-4.5-4.5-4.5h76c-2.49,0-4.5,2.01-4.5,4.5s2.01,4.5,4.5,4.5ZM296.34,427.37h-116.61c2.49,0,4.5-2.01,4.5-4.5s-2.01-4.5-4.5-4.5h116.61c-2.49,0-4.5,2.01-4.5,4.5s2.01,4.5,4.5,4.5h0ZM66.13,391.65h279.01l-50.93-125.56-24.5-12.4-26-59.98-17.16-21.77-15.11-39.72-17.7,3.39-30.26,83.21-16.89,14.88-36.53,85.71-27.03,30.99-16.9,41.25h0Z"/>
  <path class="cls-4" d="M211.44,132.22l2.07,62.57-19.92,32.86,9.34,25.15-18.5,55.45,16.13,45.88-9.55,37.52h-124.88l16.9-41.25,27.03-30.99,36.53-85.71,16.89-14.88,30.26-83.21,17.7-3.39h0ZM206.46,292.13l13.9-28.52-1.09-12.09,5.18-8.68,6.27,24.65-18.81,24.64h-5.45ZM433.87,391.67h-206.59l27.28-67.03,19.29-15.47,19.89-57.72,16.09-11.86,15.29-34.72h15.1l33.55,71.09,17.08,11.07,43.02,104.64h0Z"/>
  <path class="cls-11" d="M227.28,391.67h89.6v-57.6l20.42-40.32-9.73-42.3,12.65-46.58h-15.1l-15.29,34.72-16.09,11.86-19.89,57.72-19.29,15.47-27.28,67.03h0ZM340.22,391.67l7.71-30.32,12.48-15.42,5.56-18.18,3.89,3.95v17.39l-9.45,13.84v28.85l-20.19-.11h0ZM355.04,298.27l2.07-12.17,5.56-6.98,2.61,4.15-3.48,5.42,1.57,11.58-8.33-2h0Z"/>
  <path class="cls-11" d="M340.75,387.66h1.48v4.17h-1.48v-4.17ZM269.14,387.66h1.48v4.17h-1.48v-4.17Z"/>
  <path class="cls-1" d="M269.14,391.82l20.9-31.07,21.45,31.07h-42.35Z"/>
  <path class="cls-9" d="M269.14,391.82l20.9-31.07,21.45,31.07h-42.35Z"/>
  <path class="cls-1" d="M290.04,360.75h30.64l21.29,31.07h-30.48l-21.45-31.07h0Z"/>
  <path class="cls-14" d="M303.1,366.4h14l4.26,6.22h-13.97l-4.29-6.22Z"/>
  <path class="cls-10" d="M283.17,391.82h13.18l-6.31-31.07-6.87,31.07Z"/>
  <path class="cls-11" d="M310.74,387.66h1.48v4.17h-1.48v-4.17Z"/>
  <path class="cls-14" d="M290,360.75c-5.26,10.47-10.73,20.82-16.41,31.07,5.07-10.1,10.92-21.2,16.41-31.07ZM290,360.75c5.43,9.82,11.22,20.86,16.24,30.9-5.62-10.19-11.04-20.49-16.24-30.9Z"/>
  <path class="cls-1" d="M283.17,391.82c-.95-3.25-2.87-6.14-5.5-8.28l12.33-22.79-6.83,31.07ZM296.35,391.82l-6.35-31.07,12.88,24c-3.51.64-6.17,3.52-6.53,7.07Z"/>
  <path class="cls-11" d="M78.68,391.42c-1.14,1.15-14.5,1.66-19.36,1.66s-18.22-.51-19.32-1.66,15-90,19.37-90,20.46,88.85,19.31,90Z"/>
  <path class="cls-4" d="M79,368.79c-3.3,1.26-15.53,6.24-18.17,7.69v-1.67c2.95-1.74,5.92-3.45,8.87-5.18,3.26-1.7,6.43-3.58,9.49-5.63.14-.11.06-.4-.14-.32-3.22,1.51-6.34,3.23-9.33,5.16-3,1.76-6,3.58-8.95,5.41,0-4.26-.02-8.52-.05-12.77,4.82-2,9.48-4.37,13.94-7.08.15-.09,0-.37-.13-.3-4.77,1.92-9.39,4.19-13.82,6.81v-6.64c-.13-11.4-.15-22.8-.44-34.2,2.9-1.46,5.89-2.75,8.79-4.22.19-.1,0-.43-.15-.35-2.94,1.14-5.77,2.51-8.66,3.77-.16-5.88-.38-11.75-.74-17.63,0-.08-.07-.15-.15-.15-.08,0-.15.07-.15.15-.41,10.92-.38,21.85-.24,32.78-3-2.4-6.21-4.52-9.26-6.85-.12-.09-.24.11-.12.2,3.2,2.43,6.19,5.13,9.39,7.55v1.85c-3.26-1.49-6.57-2.87-9.86-4.28-.26-.11-.49.26-.22.38,3.35,1.61,6.69,3.25,10.09,4.77.07,5.41.17,10.82.24,16.23.12,9.45.33,18.9.53,28.35-6.15-3.11-12.34-6.13-18.58-9.08-.24-.11-.45.22-.21.36,6.09,3.48,12.37,6.64,18.8,9.44.17,7.85.33.71.43,8.56.03.21.23.35.44.31.16-.03.29-.15.31-.31-.11-10-.13-5-.16-15,3.24-.8,15.49-6.05,18.4-7.49.29-.22.08-.74-.19-.62Z"/>
  <path class="cls-11" d="M178.67,391.35c-1,1-12.45,1.42-16.62,1.42s-15.64-.44-16.62-1.42,12.9-77.2,16.62-77.2,17.6,76.21,16.62,77.2h0Z"/>
  <path class="cls-4" d="M178.9,371.93c-2.83,1.08-13.33,5.35-15.59,6.6v-1.44c2.53-1.49,5.07-3,7.61-4.44,2.82-1.47,5.55-3.1,8.19-4.87.13-.09.06-.34-.11-.27-2.76,1.29-5.44,2.77-8,4.43-2.58,1.52-5.13,3.06-7.67,4.64,0-3.65,0-7.31-.05-11,4.15-1.71,8.16-3.75,12-6.08.13-.07,0-.32-.11-.25-4.09,1.65-8.05,3.6-11.85,5.84v-5.7c-.11-9.78-.13-19.57-.38-29.35,2.49-1.25,5.06-2.36,7.54-3.62.17-.08,0-.37-.12-.3-2.53,1-5,2.15-7.44,3.24-.13-5-.32-10.09-.63-15.13,0-.07-.06-.13-.13-.13-.07,0-.13.06-.13.13-.35,9.37-.32,18.75-.2,28.12-2.58-2.05-5.33-3.87-7.95-5.87-.1-.08-.2.1-.1.17,2.74,2.09,5.31,4.4,8.06,6.48v1.59c-2.8-1.28-5.63-2.47-8.46-3.68-.22-.09-.42.23-.19.33,2.88,1.39,5.74,2.79,8.66,4.09.06,4.65.14,9.29.2,13.93.11,8.11.29,16.22.46,24.33-5.28-2.67-10.59-5.26-15.94-7.79-.21-.09-.39.19-.18.31,5.22,2.99,10.61,5.7,16.13,8.1.15,6.74.29,1.65.37,8.39,0,.18.14.32.32.32.18,0,.32-.14.32-.32-.1-8.59-.11-5.36-.13-13.95,2.78-.69,13.29-5.19,15.79-6.43.16-.08-.02-.53-.29-.42h0Z"/>
  <path class="cls-11" d="M70.36,391.75c.83.83,10.48,1.2,14,1.2s13.17-.37,14-1.2-10.86-65-14-65-14.83,64.17-14,65Z"/>
  <path class="cls-20" d="M70.16,375.39c2.39.91,11.23,4.51,13.14,5.56v-1.2c-2.13-1.26-4.27-2.5-6.41-3.74-2.37-1.25-4.67-2.62-6.9-4.1-.1-.08,0-.3.1-.24,2.33,1.09,4.58,2.34,6.75,3.73,2.17,1.28,4.32,2.59,6.46,3.91v-9.22c-3.47-1.44-6.82-3.14-10.03-5.09-.11-.07,0-.27.09-.22,3.45,1.39,6.8,3.03,10,4.92v-4.8c.09-8.23.1-16.48.31-24.71-2.09-1.06-4.25-2-6.34-3.05-.14-.07,0-.31.1-.26,2.13.83,4.17,1.82,6.26,2.73.11-4.25.29-8.49.53-12.74,0-.06.05-.11.11-.11s.11.05.11.11c.3,7.89.27,15.79.17,23.69,2.17-1.74,4.49-3.27,6.7-4.95.08-.07.17.08.08.14-2.31,1.76-4.47,3.71-6.78,5.46v1.34c2.35-1.08,4.74-2.08,7.12-3.1.19-.08.35.19.16.28-2.42,1.16-4.84,2.35-7.29,3.44-.06,3.91-.12,7.83-.17,11.73-.09,6.83-.24,13.66-.39,20.49,4.44-2.25,8.93-4.44,13.43-6.56.17-.08.32.16.15.26-4.41,2.51-8.96,4.78-13.62,6.79-.12,5.68-.24,1.26-.31,6.94-.03.15-.17.24-.32.21-.11-.02-.19-.11-.21-.21.07-7.24.09-4.39.11-11.62-4.52-1.56-8.95-3.37-13.27-5.41-.22-.11-.07-.48.16-.4Z"/>
  <path class="cls-11" d="M424.77,391.22c-1.06,1.06-13.39,1.53-17.87,1.53s-16.82-.47-17.88-1.53,13.88-83,17.88-83,18.93,81.94,17.87,83Z"/>
  <path class="cls-20" d="M425,370.33c-3,1.16-14.33,5.76-16.77,7.1v-1.54l8.19-4.78c3.03-1.58,5.97-3.33,8.81-5.23.13-.1.06-.37-.13-.3-2.97,1.4-5.85,2.99-8.62,4.76-2.77,1.63-5.51,3.31-8.25,5,0-3.93,0-7.86-.05-11.79,4.45-1.85,8.76-4.04,12.87-6.55.14-.09.05-.35-.11-.28-4.4,1.77-8.66,3.87-12.75,6.28,0-2,0-4.08-.05-6.12-.11-10.52-.13-21-.4-31.57,2.68-1.35,5.44-2.54,8.11-3.89.17-.09,0-.4-.14-.33-2.71,1.06-5.32,2.32-8,3.49-.14-5.43-.35-10.85-.68-16.27,0-.08-.06-.14-.14-.14-.08,0-.14.06-.14.14-.38,10.08-.34,20.16-.22,30.24-2.77-2.21-5.73-4.17-8.55-6.31-.11-.09-.21.1-.1.18,2.94,2.25,5.7,4.73,8.66,7v1.71c-3-1.37-6.05-2.65-9.09-3.95-.24-.11-.45.23-.21.35,3.1,1.48,6.18,3,9.32,4.4l.22,15c.11,8.72.3,17.44.49,26.16-5.68-2.87-11.4-5.67-17.15-8.38-.22-.1-.41.21-.19.33,5.62,3.22,11.41,6.13,17.35,8.72.16,7.24.31,1.77.4,9,0,.19.15.34.34.34.19,0,.34-.15.34-.34-.1-9.24-.11-5.77-.14-15,3-.74,14.3-5.58,17-6.9.29-.16.09-.64-.22-.53h0Z"/>
  <path class="cls-11" d="M373.77,391.22c-1.06,1.06-13.39,1.53-17.88,1.53s-16.81-.47-17.87-1.53,13.87-83,17.87-83,18.93,81.94,17.88,83Z"/>
  <path class="cls-20" d="M374,370.33c-3,1.16-14.33,5.76-16.77,7.1v-1.54c2.72-1.6,5.45-3.19,8.18-4.78,3.03-1.58,5.97-3.33,8.81-5.23.13-.1.06-.37-.12-.3-2.98,1.39-5.85,2.99-8.62,4.76-2.78,1.63-5.52,3.31-8.26,5,0-3.93,0-7.86-.05-11.79,4.45-1.85,8.76-4.04,12.88-6.55.14-.09,0-.35-.12-.28-4.4,1.77-8.66,3.87-12.75,6.28v-6.12c-.12-10.52-.14-21-.4-31.57,2.67-1.35,5.43-2.54,8.1-3.89.18-.09.06-.4-.13-.33-2.72,1.06-5.33,2.32-8,3.49-.15-5.43-.36-10.85-.69-16.27,0-.08-.06-.14-.14-.14-.08,0-.14.06-.14.14-.37,10.08-.34,20.16-.21,30.24-2.78-2.21-5.73-4.17-8.55-6.31-.11-.09-.22.1-.11.18,2.95,2.25,5.71,4.73,8.67,7v1.71c-3-1.37-6.06-2.65-9.1-3.95-.23-.11-.45.23-.2.35,3.09,1.48,6.18,3,9.31,4.4.07,5,.16,10,.22,15,.11,8.72.31,17.44.49,26.16-5.67-2.87-11.39-5.67-17.15-8.38-.22-.1-.41.21-.19.33,5.63,3.22,11.42,6.13,17.36,8.72.15,7.24.3,1.77.39,9,.03.19.21.32.4.29.15-.03.26-.14.29-.29-.1-9.24-.12-5.77-.15-15,3-.74,14.3-5.58,17-6.9.25-.16.06-.64-.25-.53h0Z"/>
  <path class="cls-11" d="M367.19,392c.74.74,9.36,1.07,12.49,1.07s11.76-.33,12.5-1.07-9.7-58-12.5-58-13.23,57.27-12.49,58Z"/>
  <path class="cls-4" d="M367,377.41c2.13.81,10,4,11.72,5v-1.08c-1.9-1.12-3.81-2.22-5.72-3.33-2.11-1.11-4.16-2.33-6.15-3.66-.1-.07,0-.26.08-.21,2.07.98,4.08,2.09,6,3.33,1.94,1.14,3.85,2.31,5.77,3.49v-8.24c-3.11-1.29-6.12-2.82-9-4.57-.1-.05,0-.24.08-.19,3.08,1.24,6.05,2.71,8.91,4.39v-4.28c.08-7.35.1-14.71.28-22.06-1.87-.94-3.79-1.77-5.66-2.72-.12-.06,0-.28.09-.23,1.9.74,3.73,1.62,5.59,2.44.1-3.79.24-7.58.48-11.37.02-.05.07-.08.13-.06.03,0,.05.03.06.06.26,7,.24,14.09.15,21.14,1.94-1.55,4-2.92,6-4.42.07-.06.15.07.07.13-2.06,1.57-4,3.31-6.05,4.87v1.19c2.1-1,4.23-1.85,6.36-2.76.16-.07.31.17.14.25-2.16,1-4.32,2.09-6.51,3.07,0,3.49-.11,7-.15,10.47-.08,6.1-.21,12.19-.35,18.28,4-2,8-4,12-5.85.15-.07.29.15.13.23-3.92,2.25-7.97,4.29-12.12,6.09-.11,5.07-.22,1-.28,6.08,0,.13-.11.24-.24.24s-.24-.11-.24-.24c.07-6.46.08-3.8.1-10.26-4.04-1.4-8-3.01-11.87-4.83-.12-.13.01-.47.2-.39h0Z"/>
  <path class="cls-11" d="M127.52,391.89c.74.74,9.36,1.07,12.5,1.07s11.75-.33,12.49-1.07-9.7-58-12.49-58-13.24,57.26-12.5,58Z"/>
  <path class="cls-4" d="M127.35,377.3c2.13.81,10,4,11.72,5v-1.08l-5.72-3.34c-2.12-1.11-4.17-2.33-6.16-3.66-.09-.07,0-.26.09-.2,2.07.97,4.08,2.08,6,3.32,1.94,1.14,3.86,2.31,5.77,3.49v-8.23c-3.11-1.29-6.12-2.82-9-4.57-.1-.06,0-.24.08-.19,3.08,1.24,6.05,2.71,8.91,4.39v-4.28c.07-7.35.09-14.71.28-22.06-1.87-1-3.8-1.78-5.67-2.73-.12-.06,0-.27.09-.22,1.9.74,3.73,1.62,5.59,2.44.1-3.8.25-7.59.48-11.37-.02-.05.01-.11.06-.13.05-.02.11.01.13.06,0,.02,0,.04,0,.06.27,7,.24,14.08.16,21.13,1.93-1.55,4-2.91,6-4.41.08-.06.15.07.07.12-2.06,1.57-4,3.31-6.05,4.88v1.19c2.1-1,4.23-1.85,6.36-2.76.16-.08.31.16.14.24-2.16,1-4.32,2.1-6.51,3.08l-.15,10.47c-.08,6.09-.21,12.18-.34,18.28,3.96-2,7.96-3.95,12-5.85.15-.08.29.14.14.23-3.93,2.24-7.98,4.28-12.13,6.09-.11,5.06-.22,1.12-.28,6.19,0,.13-.11.24-.24.24-.13,0-.24-.11-.24-.24.07-6.46.08-3.92.1-10.38-4.04-1.39-8-3-11.87-4.82-.16-.14-.01-.47.19-.39h0Z"/>
  <path class="cls-11" d="M201.72,391.78c.74.74,9.36,1.07,12.49,1.07s11.76-.33,12.5-1.07-9.7-58-12.5-58-13.21,57.22-12.49,58Z"/>
  <path class="cls-4" d="M201.55,377.18c2.13.81,10,4,11.72,5v-1.08c-1.9-1.12-3.81-2.22-5.72-3.33s-4.24-2.26-6.15-3.66c-.1-.07,0-.26.08-.21,2.07.98,4.08,2.09,6,3.33,1.94,1.14,3.85,2.31,5.77,3.49v-8.24c-3.11-1.29-6.12-2.82-9-4.57-.1-.06,0-.24.08-.19,3.08,1.24,6.05,2.71,8.91,4.39v-4.28c.08-7.35.1-14.71.28-22.06-1.87-.94-3.79-1.77-5.66-2.72-.12-.06,0-.28.09-.23,1.9.74,3.73,1.62,5.59,2.44.1-3.79.25-7.58.48-11.37.02-.05.07-.08.13-.06.03,0,.05.03.06.06.26,7,.24,14.09.15,21.14,1.94-1.55,4-2.92,6-4.42.08-.06.15.07.07.13-2.06,1.57-4,3.31-6,4.87v1.19c2.1-1,4.23-1.85,6.36-2.76.16-.07.31.17.14.25-2.16,1-4.32,2.09-6.51,3.07-.05,3.49-.11,7-.15,10.47-.08,6.1-.21,12.19-.34,18.28,4-2,8-4,12-5.85.15-.07.29.14.13.23-3.93,2.25-7.97,4.28-12.12,6.09-.11,5.07-.22,1.24-.28,6.31,0,.13-.11.24-.24.24-.13,0-.24-.11-.24-.24.07-6.46.08-4,.1-10.49-4.04-1.4-8-3.01-11.87-4.83-.2-.13-.07-.47.14-.39h0Z"/>
  <path class="cls-11" d="M435.09,391.78c.74.74,9.36,1.07,12.49,1.07s11.75-.33,12.49-1.07-9.7-58-12.49-58-13.23,57.22-12.49,58Z"/>
  <path class="cls-4" d="M434.92,377.18c2.12.81,10,4,11.72,5v-1.08c-1.9-1.12-3.81-2.22-5.72-3.33-2.11-1.11-4.17-2.34-6.16-3.66-.09-.07,0-.26.09-.21,2.07.97,4.08,2.09,6,3.33,1.94,1.14,3.86,2.31,5.77,3.49v-8.24c-3.12-1.29-6.12-2.81-9-4.57-.1-.06,0-.24.08-.19,3.08,1.24,6.05,2.71,8.91,4.39v-4.28c.08-7.35.09-14.71.28-22.06-1.87-.94-3.8-1.77-5.67-2.72-.12-.06,0-.28.1-.23,1.9.74,3.72,1.62,5.58,2.44.11-3.79.25-7.58.48-11.37,0-.06.04-.1.1-.1s.1.04.1.1c.26,7,.24,14.09.15,21.14,1.94-1.55,4-2.92,6-4.42.08-.06.15.07.08.13-2.06,1.57-4,3.31-6.06,4.87v1.19c2.1-1,4.23-1.85,6.35-2.76.17-.07.32.17.15.25-2.17,1-4.32,2.09-6.51,3.07-.05,3.49-.11,7-.16,10.47-.07,6.1-.21,12.19-.34,18.28,4-2,8-4,12-5.85.06-.04.14-.01.18.05.04.06.01.14-.05.18h0c-3.93,2.25-7.98,4.28-12.13,6.09-.11,5.07-.21,1.24-.28,6.31,0,.3-.48.3-.47,0,.07-6.46.08-4,.1-10.49-4.04-1.39-8-3.01-11.87-4.83-.15-.13-.01-.47.2-.39h0Z"/>
  <text class="cls-13" transform="translate(197.07 462.31)"><tspan class="cls-18" x="0" y="0">B</tspan><tspan class="cls-17" x="13.82" y="0">ad </tspan><tspan class="cls-22" x="50.16" y="0">R</tspan><tspan class="cls-23" x="64.56" y="0">e</tspan><tspan x="77.18" y="0">que</tspan><tspan class="cls-19" x="119.49" y="0">s</tspan><tspan x="129.45" y="0">t</tspan></text>
  <circle class="cls-2" cx="256.63" cy="379.49" r="10.63"/>
  <circle class="cls-2" cx="256.63" cy="381.91" r="8.16"/>
  <path class="cls-1" d="M257.36,390.05s-6.49-.95-6.87-.7-.75,2.14,0,2.6,6.72-.37,6.72-.37c.41-.41.48-1.05.15-1.53Z"/>
  <path class="cls-7" d="M257.36,390.05s-6.49-.95-6.87-.7-.75,2.14,0,2.6,6.72-.37,6.72-.37c.41-.41.48-1.05.15-1.53Z"/>
  <path class="cls-6" d="M250.52,389.43c.19-.05.51.6.44,1.32s-.33,1.15-.44,1.14-.47-.42-.41-1.31c.05-.64.24-1.12.41-1.15h0Z"/>
  <g class="cls-5">
    <path d="M251.2,389.61c.37-.03.75-.03,1.12,0l.56.05.28.05c.09.03.18.05.27.06.36.06.72.1,1.09.12l1.12.1c-.37.02-.75.02-1.12,0-.38,0-.76-.02-1.13-.08-.09-.01-.18-.04-.27-.07l-.27-.05-.54-.08-1.11-.1ZM251.93,390l.79.13c.26.05.52.11.77.14.26.02.52.02.78,0h.79c-.26.07-.52.12-.78.16-.27.03-.54.03-.81,0-.26-.04-.52-.1-.78-.18-.26-.06-.51-.15-.76-.25h0ZM255.12,390.56c.34-.25.75-.4,1.17-.43.22-.01.43.02.63.11.11.04.21.11.29.19.04.05.08.1.1.16,0,.02,0,.05,0,.07-.02.03-.04.06-.06.08-.16.16-.37.27-.59.31-.11.03-.23.03-.34,0l-.32-.05c-.09-.07-.19-.12-.24-.25-.02-.04-.02-.08,0-.12.02-.03.04-.06.08-.07h.16c.11-.02.21-.02.32,0,.1,0,.2.04.29.1-.19-.06-.4-.06-.59,0h-.14v.06c0,.06.12.12.2.16.09.05.18.08.27.11.09.02.18.02.27,0,.19-.04.36-.14.49-.27-.02-.03-.04-.06-.06-.09-.06-.07-.14-.12-.23-.16-.18-.08-.37-.12-.56-.12-.2,0-.41.02-.6.08-.18.03-.36.07-.54.13h0Z"/>
    <path d="M257.28,391.19c-.25.13-.53.22-.81.26-.14.02-.29.02-.43,0-.15-.02-.29-.06-.43-.11-.26-.1-.51-.22-.75-.37-.25-.13-.51-.22-.78-.27.28-.02.57.03.83.15.27.1.51.23.76.32.25.1.52.14.79.13.28,0,.55-.05.82-.11h0ZM251,391.74h1c.33.02.67.02,1,0,.33-.06.67-.08,1-.06.33,0,.66.06,1,.11h-1c-.34,0-.67.03-1,.09-.33.04-.67.04-1,0-.34-.03-.67-.07-1-.14h0ZM255.46,391.53l-.83-.2-.42-.08c-.13-.02-.27-.02-.4,0l-.84.17-.43.05c-.15.02-.3.02-.45,0-.14-.03-.28-.07-.42-.12-.15-.05-.28-.13-.4-.24-.03-.04-.05-.08-.06-.13-.02-.05-.02-.11,0-.16.05-.08.12-.14.21-.16.14-.05.29-.08.44-.08.15,0,.29,0,.44,0,.15.02.29.07.42.15.04.02.07.06.08.11,0,.07-.07.09-.1.11h-.21c-.14.01-.29.01-.43,0l.42-.05c.12,0,.34-.09.19-.15-.12-.06-.25-.1-.39-.1-.14-.02-.27-.02-.41,0-.14.01-.27.04-.4.08-.05,0-.1.06-.11.09-.03.03-.03.08,0,.11.1.08.21.14.33.18.13.05.26.09.4.12.27.04.55.04.82,0,.28,0,.55-.1.84-.13h.22c.07,0,.15,0,.22,0l.42.11c.31.12.58.21.85.32h0ZM253.63,390.73c-.39-.07-.75-.17-1.12-.27l-.54-.14c-.18-.06-.37-.09-.56-.1.19-.04.39-.04.58,0,.19.02.38.06.57.11.37.09.73.22,1.07.4h0Z"/>
  </g>
  <path class="cls-1" d="M256.46,390s6.5-.88,6.89-.62.71,2.15-.07,2.6-6.73-.45-6.73-.45c-.39-.42-.43-1.06-.09-1.53Z"/>
  <path class="cls-7" d="M256.46,390s6.5-.88,6.89-.62.71,2.15-.07,2.6-6.73-.45-6.73-.45c-.39-.42-.43-1.06-.09-1.53Z"/>
  <path class="cls-6" d="M263.31,389.46c-.19,0-.52.6-.45,1.32s.31,1.15.42,1.14.47-.41.42-1.3c-.03-.62-.22-1.12-.39-1.16h0Z"/>
  <g class="cls-5">
    <path d="M256.7,391.35l1.11.06c.18,0,.37,0,.55,0h.56c.38,0,.75.04,1.12.11.37.06.73.13,1.09.23l-1.11-.09c-.37,0-.74-.07-1.1-.07h-.27c-.1,0-.19,0-.29,0-.19.01-.37.01-.56,0-.37-.09-.74-.16-1.1-.24h0ZM257.37,391.33c.25-.09.51-.16.77-.21.26-.06.53-.1.8-.12.27,0,.54.03.8.09.26.06.52.13.77.22l-.79-.08c-.26-.03-.51-.05-.77-.05l-.78.08-.8.07ZM260.59,391c.18.1.37.19.56.26.19.06.39.11.59.12.19.01.39-.01.57-.08.09-.03.17-.07.24-.14.03-.02.06-.05.07-.09v-.05c-.13-.14-.29-.25-.47-.3-.09-.02-.17-.02-.26,0l-.29.08c-.08.03-.15.08-.21.15v.06h.13c.19.07.41.07.6,0-.09.06-.19.09-.3.09-.11.01-.21.01-.32,0l-.16-.05s-.06,0-.08-.08c-.02-.03-.02-.08,0-.11.05-.11.15-.19.26-.24l.3-.11c.11-.03.24-.03.35,0,.22.06.41.18.56.35v.09s0,.05,0,.07c-.03.06-.06.11-.11.15-.09.08-.19.13-.3.17-.21.07-.42.09-.64.06-.39-.04-.77-.18-1.09-.4h0Z"/>
    <path d="M262.79,390.51c-.26-.09-.53-.15-.8-.18-.26-.04-.53-.01-.79.06-.26.07-.51.18-.79.27-.27.09-.56.12-.84.08.28-.03.55-.1.8-.21.25-.13.51-.23.78-.31.14-.04.28-.07.43-.07.14-.02.29-.02.43,0,.28.07.54.19.78.36h0ZM258.91,389.89c.33-.07.66-.12,1-.15.33-.04.67-.04,1,0,.33.06.66.09,1,.09h1c-.33.06-.66.1-1,.12-.33.04-.67.04-1,0-.33-.03-.67-.03-1,0l-1-.06Z"/>
    <path d="M261,390l-.83.22-.42.07c-.08,0-.15,0-.23,0h-.22l-.83-.2c-.26-.07-.54-.1-.81-.09l-.4.08c-.13.03-.24.08-.35.16-.02.03-.02.08,0,.11.03.04.06.07.11.09.12.06.26.1.39.12.14.01.27.01.41,0,.13,0,.27-.02.39-.07.15,0-.06-.12-.18-.16-.13-.04-.27-.07-.41-.09h.42c.08.01.15.04.22.07.05.01.08.06.08.11,0,.05-.04.09-.08.11-.14.07-.29.1-.44.11-.14.01-.29.01-.43,0-.15,0-.3-.04-.44-.1-.09-.04-.16-.1-.2-.19-.01-.05-.01-.1,0-.15.01-.05.04-.09.07-.13.12-.1.27-.17.42-.21.14-.04.28-.07.43-.09.15-.02.3-.02.45,0,.14.02.28.05.42.09l.82.23c.14.03.27.03.41,0h.42c.26.04.54-.01.81-.09h0ZM259.12,390.69c-.35.16-.72.28-1.1.35-.19.03-.38.06-.57.07-.2.01-.4-.02-.58-.09.19.02.37.02.56,0l.56-.11c.37-.09.75-.17,1.13-.22h0ZM260.85,391.39c.3.1.57.19.86.26l.43.08h.45c-.14.07-.29.1-.45.11-.16,0-.32-.01-.47-.05-.15-.04-.3-.09-.44-.16-.14-.06-.27-.14-.38-.24h0Z"/>
  </g>
  <path class="cls-1" d="M261.87,376.25c0,.11.09.2.2.2,0,0,0,0,.01,0,.11,0,.2-.09.2-.2h0c0-.11-.08-.2-.19-.21,0,0,0,0-.01,0-.12,0-.21.09-.21.21ZM259.72,367.6c0,.11.09.2.2.2s.2-.09.2-.2-.09-.2-.2-.2-.2.09-.2.2h0ZM252,374.93c.08.08.2.08.28,0,.08-.08.08-.21,0-.29-.08-.08-.2-.08-.28,0-.08.07-.09.19-.02.27,0,0,.01.02.02.02ZM250.22,387.23c0,.11.09.2.2.2.11,0,.2-.09.2-.2h0c0-.11-.09-.2-.2-.2-.11,0-.2.09-.2.2h0ZM262.8,385.86c0,.11.09.2.2.2s.2-.09.2-.2-.09-.2-.2-.2-.2.09-.2.2h0ZM261.6,377.56c0,.15.12.27.27.27s.27-.12.27-.27-.12-.27-.27-.27-.27.12-.27.27h0ZM253.12,372.68c.12.09.29.06.38-.06.09-.12.06-.29-.06-.38-.12-.08-.28-.06-.37.05-.09.12-.08.29.04.38,0,0,0,0,.01,0ZM250.73,382.76c0,.15.13.27.28.27.15,0,.27-.12.27-.27,0-.15-.12-.27-.27-.28-.15,0-.27.13-.28.28ZM261.17,377.17c0,.07.05.12.12.12s.12-.05.12-.12c0-.06-.06-.12-.12-.12-.07,0-.12.05-.12.12Z"/>
  <circle class="cls-1" cx="262.29" cy="380.99" r=".12"/>
  <path class="cls-1" d="M263.71,384.78c0,.07.05.12.12.12s.12-.05.12-.12-.05-.12-.12-.12c-.06,0-.12.06-.12.12ZM250.34,381.91c0,.07.05.12.12.12s.12-.05.12-.12c0-.06-.06-.12-.12-.12-.07,0-.12.05-.12.12ZM262.77,373.44c0,.06.05.11.11.11.06,0,.11-.04.12-.1,0,0,0,0,0-.01,0-.07-.05-.12-.12-.12-.06,0-.11.05-.11.11,0,0,0,0,0,.01Z"/>
  <circle class="cls-1" cx="257.45" cy="372.34" r=".12"/>
  <circle class="cls-1" cx="256.56" cy="370.56" r=".12"/>
  <path class="cls-1" d="M252.5,390.33c1.24.47,2.54.79,3.86.93h.79s2-.47,2.27-.57,1,.21,1.28,0c.74-.56,1.38-1.24,1.91-2-.1-.72-.27-1.43-.52-2.12,0-.29.4-2,.44-2.58s-1.65-3.39-1.81-3.85c.04-.73.2-1.45.49-2.13,0,0-1.39,1.46-1.35,1.81s.68,1.13.72,1.38-.87,2-.84,2.26c.19.46.32.93.4,1.42-.1-.42-.32-.81-.64-1.1-.36-.2-.71-.42-1.05-.65-.32-.55-.54-1.15-.65-1.78.24-.36.37-.78.38-1.21-.34-.92-.77-1.8-1.31-2.62,0,0,.22,1.12,0,1.39s-1,.68-1.09.89.72,1.12.62,1.34-1.89.59-2.07.84c-.35.78-.53,1.63-.54,2.48.13.36.56,1.73.32,2s-.78.38-.8.27c.15-.49.21-.99.19-1.5-.13-.53-.7-1.69-.74-2,.08-.71.25-1.4.51-2.06-.48.73-.87,1.51-1.17,2.33.06.8.16,1.6.31,2.39,0,0-.26-.17-.32-.29-.03-.33-.03-.67,0-1-.32.36-.59.77-.8,1.21-.08.36.33,1.26.27,1.57s-.38,1-.42,1.4,1.05,1.36,1.36,1.55h0ZM261.08,387.62c-.09.43-.25.83-.47,1.21,0,0,.09-.59.09-.83-.05-.31-.14-.62-.26-.91-.03-.38.07-.76.3-1.07.18.52.3,1.05.34,1.6h0ZM259.4,390.4l.73-.64c.24-.22.95-.54,1.08-.75.15-.41.26-.82.34-1.25.09.45.12.92.09,1.38-.29.49-.69.9-1.17,1.21-.35.08-.71.1-1.07.05h0ZM254.11,387.25c-.2.33-.33.7-.41,1.08.02.36.14.7.34,1,.13.27.24.55.31.84,0,0-.84-.39-1-1s.71-1.85.76-1.92h0Z"/>
  <path class="cls-1" d="M259.8,378.41s.87-.62.89-1.08-.54-1.45-.48-1.82c.05-.26.13-.51.25-.74,0,0-.92.63-.92,1.15s.55,1.34.5,1.6-.24.89-.24.89h0ZM254.6,381.26c.1-.28.15-.57.17-.86-.06-.21-.17-.41-.32-.57-.14.18-.18.42-.11.64.11.4.26.79.26.79h0ZM252.45,381.15c.25-.4.42-.85.5-1.32,0-.53-.12-1.06-.36-1.54-.16-.19-.35-.34-.57-.46.15.22.25.46.32.72,0,.22-.16.91-.18,1.18.06.48.16.95.29,1.42ZM258.1,377.56s.65-.89.53-1.47c-.16-.56-.44-1.08-.83-1.52-.32-.31-.61-.64-.87-1-.2-.56-.2-1.18,0-1.74.16-.19.35-.34.57-.45-.58,0-1.12.28-1.46.75-.57.79-1.3,3.88-1,4.59.34.54.78,1.02,1.3,1.39-.11-.5-.17-1.02-.17-1.53.09-.3,1,0,1.22.19.26.24.5.51.71.79h0ZM259.6,381.93s.4-.42.32-.78-.6-.9-.63-1.07c.01-.29.05-.58.12-.86,0,0-.52,1-.4,1.28s.22.76.22.76c0,0-.23-.15-.28-.28-.04-.11-.07-.22-.09-.33,0,0-.39.49-.27.83.22.37.49.71.8,1,0-.1,0-.21,0-.31,0-.12.07-.06.21-.24h0Z"/>
  <path class="cls-8" d="M256.82,391.26s2.37-.86,2.9-2.07c.33-.76-.56-2.32-.64-2.56s0-1.2-.1-1.58-1.8-1.37-2-1.63.29-1.3.29-1.3c0,0-1.27,1-1.46,1.61s.56,1.72.56,1.93c-.11.3-.26.58-.45.83-.19-.24-.31-.53-.35-.83,0-.4.19-.6.15-.88-.13-.3-.32-.58-.56-.81.14.24.19.53.14.81-.14.33-.78,1-.69,1.49s.86,1.69.79,2c-.04.2-.13.38-.24.55-.11-.26-.2-.53-.27-.8-.07-.32-.14-.75-.14-.75,0,0-.39,2.11,0,2.7.6.56,1.3,1,2.07,1.29h0ZM257.45,376.59c.14-.29.24-.6.28-.92,0-.31-.55-.73-.81-1-.4-.37-.67-.86-.76-1.4,0-.4.11-.7.11-.7-.36.97-.61,1.98-.74,3,.02.43.18.84.46,1.17,0,0,.15-.68.48-.66.37.08.7.26.98.51ZM260,378.1s.51-.47.5-.79c-.11-.42-.28-.82-.5-1.19,0,0,.22,1,.25,1.23-.03.26-.12.52-.25.75ZM254.15,390.51s-1-.64-1.22-.8c-.24-.38-.39-.81-.45-1.26,0-.18.35-1,.35-1.2s-.67-1-.67-1c.1.3.16.61.18.93,0,.18-.92,1.22-.86,1.61s.89,1.09,1.13,1.25c.5.2,1.02.35,1.54.47h0ZM261.41,386.37c.3-.72.5-1.47.62-2.24-.24-.76-.52-1.51-.86-2.24,0,0,.06,1.51.12,1.75.02.34-.03.68-.12,1-.11-.23-.21-.47-.29-.71,0-.31.05-.63.12-.93-.24.57-.37,1.19-.38,1.81.21.55.47,1.07.79,1.56h0Z"/>
  <g>
    <text class="cls-12" transform="translate(42.82 237.75)"><tspan x="0" y="0">400</tspan></text>
    <g>
      <path class="cls-15" d="M113.54,143.15l-25.6,30h25.6v-30ZM62.74,200.15c-7.8,0-13.4-6.4-13.4-13.4,0-3.2,1-6.2,3-8.6l64.6-77.2c2.6-3,6.4-5.2,11.2-5.2,8,0,14.4,6.4,14.4,14.4v63h6.4c7.6,0,13.6,6,13.6,13.6s-6,13.4-13.6,13.4h-6.4v25c0,8-6.4,14.6-14.4,14.6s-14.6-6.6-14.6-14.6v-25h-50.8Z"/>
      <path class="cls-15" d="M286.94,167.75c0-24.6-18.6-44-42.2-44s-42.2,19.4-42.2,44,18.6,44,42.2,44,42.2-19.4,42.2-44ZM172.54,167.75c0-40.2,31.8-72,72.2-72s72.2,31.8,72.2,72-31.8,72-72.2,72-72.2-31.8-72.2-72Z"/>
      <path class="cls-15" d="M447.33,167.75c0-24.6-18.6-44-42.2-44s-42.2,19.4-42.2,44,18.6,44,42.2,44,42.2-19.4,42.2-44ZM332.94,167.75c0-40.2,31.8-72,72.2-72s72.2,31.8,72.2,72-31.8,72-72.2,72-72.2-31.8-72.2-72Z"/>
    </g>
    <text class="cls-3" transform="translate(51.86 237.75)"><tspan x="0" y="0">400</tspan></text>
  </g>
</svg>